<svg width="50" height="50" viewBox="0 0 50 50" fill="none" xmlns="http://www.w3.org/2000/svg">
    <path d="M33.3333 50V41.6666C37.9444 41.6666 41.6666 37.9444 41.6666 33.3333H49.9999C49.9999 42.5555 42.5277 50 33.3333 50Z"
          fill="#FFD11A"/>
    <path d="M33.3333 50V41.6666C28.7222 41.6666 25 37.9444 25 33.3333H16.6666C16.6666 42.5555 24.1388 50 33.3333 50Z"
          fill="#FFD11A"/>
    <path d="M0 33.3334H8.33333C8.33333 37.9445 12.0556 41.6667 16.6667 41.6667V50C7.47222 50 0 42.5556 0 33.3334Z"
          fill="#FFD11A"/>
    <path d="M0 33.3334H8.33333C8.33333 28.7222 12.0556 25 16.6667 25V16.6667C7.47222 16.6667 0 24.1389 0 33.3334Z"
          fill="#FFD11A"/>
    <path d="M16.6667 0V8.33333C12.0556 8.33333 8.33333 12.0556 8.33333 16.6667H0C0 7.47222 7.47222 0 16.6667 0Z"
          fill="#FFD11A"/>
    <path d="M16.6666 0V8.33333C21.2777 8.33333 25 12.0556 25 16.6667H33.3333C33.3333 7.47222 25.8611 0 16.6666 0Z"
          fill="#FFD11A"/>
    <path d="M50 16.6667H41.6667C41.6667 12.0556 37.9445 8.33333 33.3334 8.33333V0C42.5278 0 50 7.47222 50 16.6667Z"
          fill="#FFD11A"/>
    <path d="M50 16.6667H41.6667C41.6667 21.2778 37.9445 25 33.3334 25V33.3334C42.5278 33.3334 50 25.8889 50 16.6667Z"
          fill="#FFD11A"/>
</svg>
